<svg width="102" height="102" viewBox="0 0 102 102" fill="none" xmlns="http://www.w3.org/2000/svg">
<rect width="101.987" height="101.987" rx="50.9934" fill="url(#paint0_linear_169_8530)"/>
<g clip-path="url(#clip0_169_8530)">
<path d="M74.5367 25.0595C61.1042 12.8214 40.2416 13.0059 27.0174 25.4702C16.827 35.0774 13.7039 49.244 17.6539 61.6428C19.2958 66.8036 25.8633 68.3452 29.6884 64.5178L36.2202 57.9821L45.2565 48.9405L53.4838 40.7083C55.6372 38.5536 59.1233 38.5536 61.2708 40.7083C63.4243 42.8631 63.4243 46.3512 61.2708 48.5L53.0435 56.7321L58.3023 74.5714L53.805 81.7143L44.0132 65.7678L37.4754 72.3095C33.6444 76.1428 35.1911 82.7083 40.3547 84.3512C52.4249 88.1964 66.1726 85.3333 75.7503 75.75C89.8133 61.6786 89.4088 38.619 74.5367 25.0655V25.0595ZM34.5248 56.7381L22.0144 49.6666L28.2428 47.2619L43.46 48.2976L34.5248 56.7381Z" fill="white"/>
</g>
<defs>
<linearGradient id="paint0_linear_169_8530" x1="50.9934" y1="0" x2="50.9934" y2="101.987" gradientUnits="userSpaceOnUse">
<stop stop-color="#65D2DA"/>
<stop offset="1" stop-color="#256FF1"/>
</linearGradient>
<clipPath id="clip0_169_8530">
<rect width="70" height="70" fill="white" transform="translate(16 16)"/>
</clipPath>
</defs>
</svg>
